<svg xmlns="http://www.w3.org/2000/svg" xmlns:xlink="http://www.w3.org/1999/xlink" width="35" zoomAndPan="magnify" viewBox="0 0 375 374.999991" height="35" preserveAspectRatio="xMidYMid meet" version="1.0"><path fill="#f5f5f5" d="M 187.5 0 C 83.945312 0 0 83.945312 0 187.5 C 0 291.054688 83.945312 375 187.5 375 C 291.054688 375 375 291.054688 375 187.5 C 375 83.945312 291.054688 0 187.5 0 Z M 281.25 281.25 L 93.75 281.25 C 83.394531 281.25 75 272.855469 75 262.5 C 75 252.144531 83.394531 243.75 93.75 243.75 L 281.25 243.75 C 291.605469 243.75 300 252.144531 300 262.5 C 300 272.855469 291.605469 281.25 281.25 281.25 Z M 281.25 206.25 L 93.75 206.25 C 83.394531 206.25 75 197.855469 75 187.5 C 75 177.144531 83.394531 168.75 93.75 168.75 L 281.25 168.75 C 291.605469 168.75 300 177.144531 300 187.5 C 300 197.855469 291.605469 206.25 281.25 206.25 Z M 281.25 131.25 L 93.75 131.25 C 83.394531 131.25 75 122.855469 75 112.5 C 75 102.144531 83.394531 93.75 93.75 93.75 L 281.25 93.75 C 291.605469 93.75 300 102.144531 300 112.5 C 300 122.855469 291.605469 131.25 281.25 131.25 Z M 281.25 131.25 " fill-opacity="1" fill-rule="nonzero"/></svg>